<?xml version="1.0" encoding="utf-8"?>
<!-- Generator: Adobe Illustrator 21.1.0, SVG Export Plug-In . SVG Version: 6.00 Build 0)  -->
<svg version="1.1" id="Layer_1" xmlns="http://www.w3.org/2000/svg" x="0px"
	 y="0px"
	 viewBox="0 0 247.2 377.2" style="enable-background:new 0 0 247.2 377.2;" xml:space="preserve">
<style type="text/css">
	.st0{fill:#FFFFFF;}
	.st1{fill:#AF2A30;}
</style>
	<g>
	<g id="XMLID_6_">
		<g>
			<path class="st0" d="M189.4,99.2c-5-5.3-3.4-12.5,0-18.8c1.5-2.7,4.4-4.5,5.9-6.9c3.5-5.5,6.3-15.5,8.4-22.6
				c2.5-8.3,3.6-19.4,2.9-29.9c-0.1-0.6,0.4-0.7,0.4-1.2c0.4,0,0.8,0,1.3,0c0.9,4.8,5,8.8,6.7,13.8c2.2,6.4,1.8,15.5,1.3,23.4
				c-0.8,10.6-5.8,20.1-7.2,29.1C204.4,92,201.7,106.1,189.4,99.2z"/>
			<path class="st0" d="M187.4,185.7c3.3,9.1-2.4,15.8-11.4,16.1c-3.8,0.1-6.9-2.4-10.9,0c-3.3-2.1-0.6-5.2-0.8-8.4
				c-0.8-8.9-8.3-14.3-13.5-19.9c-3.1-3.4-6.8-6.5-8.4-10.2l0,0c0.1-0.1,0.1-0.1,0.2-0.2l0,0c0.2-0.1,0.3-0.3,0.6-0.3
				c12.7,0.9,21.8,6.6,32,12.3C181.1,178.2,185.9,181.4,187.4,185.7z"/>
			<path class="st0" d="M181.4,65.5c-1.7,5.1-5.5,8.2-8,12.6c0.3,4.8-1.7,7-0.8,11.5c-2.2,3.4-4.2,6.9-8.8,7.3
				c-7.7,0.6-15.7-6.1-16-13.4c-0.5-10.6,5.3-23.3,5.9-31.8c-3.1-0.2-5.3,2.3-7.6,3.8c-2.4,1.7-5.2,3-7.6,4.6
				c-7.6,5.2-13.5,12.4-19.8,18.4c-2.9,6.3-8.9,10.7-10.9,18c-1.2,4.2-0.4,8.7-2.5,12.6c-5.6,10.5-28.5,3.5-29.9-6.1
				c-0.3-2.1,1.1-4.7,1.3-6.9c0.5-8.1-1-21.7-10.9-20.3c-4.1,0.6-5.6,5.9-7.2,8.8c-3.5,0.2-6.9,2.4-10.5,1.5
				c-2.6-0.6-4.4-4.4-7.2-6.9c-4.1-3.7-13.7-9.7-10.9-18c1.1-3.4,8.3-7.6,11.4-10c4.6-3.6,7.1-7.4,10.9-10.3
				c2.8-5.5,8-9.9,12.6-15.7c5.7-7.2,6.2-17,12.2-23C82-2.9,88.3,2.9,89.6,7.6c2.9,11.1-2.9,24.5-4.2,34.1c-4.1,2.2-3.5,7.1-5,11.1
				c-1.1,2.7-3.8,3.8-4.6,6.1c4.6,3.7,13.1,7.6,17.7,11.1c2.1,1.6,4.6,6.1,7.6,6.1c2.4,0,5.6-4.3,8-6.5c7.2-6.7,15.2-14,23.2-19.2
				c12.6-8.2,22.7-17.1,34.5-22.6c3.7,2.1,8.4-0.4,12.2,0c3.5,0.4,7.7,3.9,8,6.1c0.2,1.9-2,3.4-3,6.1c-0.6,1.9-0.4,4-0.8,5.4
				c-2.5,7.2-8.4,15.8-8,22.2C177.8,69.3,178.6,64,181.4,65.5z"/>
			<path class="st0" d="M167.6,235.4c8,2,18.5,6.6,11.4,14.2c-2.4,2.6-8.9,7.5-11.4,8.8c-0.9,0.5-2.1,0.1-2.9,0.4
				c-6.8,2.5-12,7.7-17.7,11.5c2.5,2.9,6.1,4.9,5.1,11.1c-6.8,8.2-26.1,19.4-42.1,14.9c-5-1.4-9.9-8.9-5.1-14.9
				c4.5-5.7,18.8-10,22.7-16.8c-3.3-1.1-9.3,0.3-12.6-0.8c4.4-4.1,11.7,0.2,16.4-0.4c4-0.5,12.1-7.3,15.2-9.6
				c5.3-3.9,11-5.9,14.3-10.3c-1.3-3.1-4.1-1.9-7.2-2.3c-10.2-1.5-18.6-2.3-27.8,1.5c-2.6,1.1-4.9,3.1-7.6,4.2
				c-2.6,1.1-6.2,1.6-9.3,2.7c-5.8,2.1-9.7,5.6-18.1,3.4c-1.8-2.2-11-9.2-7.6-16.1c1.3-2.7,6.7-4.1,9.3-5.8
				c8.6-5.6,14.9-11.8,22.3-18.8c6.5-6.1,12.2-12.1,15.6-19.9c2-4.5,1.4-14.2,9.7-11.5c4.3,1.4,5.4,7.2,7.6,10
				c-1.8,3.9-0.2,9.2-3.4,12.6c-1.2,13.2-9.1,20.3-15.6,28.7c3.9,1.2,9.2-0.6,14.7-0.4C150.6,232.3,160.2,233.6,167.6,235.4z
				 M119.6,289.5c11,1,33.7-5.2,22.7-15.7c-0.5,0-0.6-0.5-1.3-0.4c-4.2,2.3-7.9,4.9-11.8,7.7C125.9,283.4,121.3,285.6,119.6,289.5z"
			/>
			<path class="st0" d="M142.6,163c0,0.1-0.1,0.1-0.2,0.2c0,0,0-0.1-0.1-0.1C142.4,163,142.5,163,142.6,163z"/>
			<path class="st0" d="M84.6,129c19.2-6.7,70-15.5,68.6,13.8c-0.2,4.8-4.8,10.7-7.6,15.3c-1,1.7-2.1,3.3-3.2,4.9l0,0
				c-0.1,0-0.1,0.1-0.2,0.1c0,0,0,0.1,0.1,0.1l0,0c-10.3,15-23,27-38,37c-4.2,2.8-7.4,6.7-14.3,5.8c0.5-2.1,0.8-6,0-8.1
				c-2.4-0.6-1.5,1.7-3.8,1.1c-0.5-2.8,1.5-5.1,2.5-7.7c0.7-1.9,0.4-3.9,1.7-5.4c1.8-2.2,4.6-2.7,5.9-5c0.7-1.1,0.4-2.6,1.3-3.8
				c1-1.4,3.1-2,4.2-3.4c0.6-0.8,0-1.9,0.4-2.7c1-1.9,3.9-2.6,4.6-4.6c1.1,0,2.2,0,3.4,0c2.8-3.5,2.4-10,8-11.1
				c0.2-1.4-1.7-1-1.3-2.7c2.8-2.2,5.6-4.3,6.3-8.4c3.2-1.4,4.6-4.5,5.9-7.7c-2.2-4-9.6-2.8-14.3-3.4c-1.7-0.2-3.2-1.1-4.6-1.1
				c-2.5,0-4.3,1.4-6.7,1.9c-3.1,0.7-7.6,0.7-11.4,1.5c-7.5,1.7-13.1,4.5-18.1,0.8C74,132,80.3,130.5,84.6,129z"/>
		</g>
	</g>
</g>
	<g>
	<g id="XMLID_1_">
		<g>
			<path class="st0" d="M194.4,315.1h6.5V346H196l-22.8-19.1c-0.6-0.5-1-0.9-1.4-1.3s-0.8-0.8-1.2-1.2c0.1,1,0.2,1.9,0.2,2.7
				c0,0.8,0.1,1.6,0.1,2.2V346h-6.5v-30.9h4.9l21.9,18.2c0.7,0.6,1.4,1.2,2,1.7s1.1,1.1,1.6,1.6c-0.1-1.7-0.2-3-0.2-3.7
				s-0.1-1.3-0.1-1.7L194.4,315.1L194.4,315.1z"/>
			<path class="st0" d="M124.6,315.1h22.9c3,0,5.1,0.5,6.1,1.6c1.1,1,1.6,3,1.6,5.8v16.3c0,2.8-0.5,4.7-1.6,5.8
				c-1.1,1-3.1,1.5-6.1,1.5h-22.9c-3,0-5.1-0.5-6.1-1.5c-1.1-1-1.6-2.9-1.6-5.8v-16.3c0-2.8,0.5-4.7,1.6-5.8
				C119.6,315.6,121.6,315.1,124.6,315.1z M148,340.2v-19.6h-23.9v19.6H148z"/>
			<path class="st0" d="M28.2,320.5H7.8v6.6h19.4c3,0,5.1,0.5,6.1,1.6c1.1,1,1.6,3,1.6,5.8v4.2c0,2.8-0.5,4.7-1.6,5.7
				s-3.1,1.5-6.1,1.5H8c-3,0-5.1-0.5-6.2-1.5s-1.6-3-1.6-5.7v-0.8l6.4-1.3v3.6h21.9v-7.1H9.2c-3,0-5.1-0.5-6.1-1.5
				c-1.1-1-1.6-3-1.6-5.8v-3.4c0-2.8,0.5-4.7,1.6-5.8c1.1-1,3.1-1.6,6.1-1.6h17.7c2.9,0,4.9,0.5,6.1,1.5c1.1,1,1.7,2.8,1.7,5.3v0.6
				l-6.4,1.5L28.2,320.5L28.2,320.5z"/>
			<path class="st0" d="M247,322.8l-7,1.3v-3.5h-22.6v19.6H240v-6.9h-11.9V328H247v10.7c0,2.8-0.5,4.7-1.6,5.8
				c-1.1,1-3.1,1.5-6.1,1.5h-21.5c-3,0-5.1-0.5-6.1-1.5c-1.1-1-1.6-3-1.6-5.8v-16.3c0-2.8,0.5-4.7,1.6-5.8c1.1-1,3.1-1.6,6.1-1.6
				h21.5c3,0,5,0.5,6.1,1.5s1.6,2.8,1.6,5.5V322.8L247,322.8z"/>
			<polygon class="st0" points="65.5,332.5 51.2,332.5 51.2,340.2 76.1,340.2 76.1,346 43.9,346 43.9,315.1 75.8,315.1 75.8,320.3 
				51.2,320.3 51.2,327.2 65.5,327.2 			"/>
			<path class="st0" d="M87.5,330.9v9.3h14.2v-25.1h7.2v23.6c0,2.8-0.5,4.7-1.6,5.8c-1.1,1-3.1,1.5-6.1,1.5H87.9
				c-3,0-5.1-0.5-6.1-1.5c-1.1-1-1.6-2.9-1.6-5.8v-6.4L87.5,330.9z"/>
			<path class="st0"
				  d="M45.4,370.2h7.5l-3.7-6.9L45.4,370.2z M51.3,360.1L61,377h-4.4l-2-3.7H43.7l-2,3.7h-3.9l9.6-16.9H51.3z"/>
			<path class="st0" d="M163.2,360.1l12,10c0.4,0.3,0.8,0.6,1.1,0.9s0.6,0.6,0.9,0.9c-0.1-0.9-0.1-1.6-0.1-2s0-0.7,0-0.9v-8.9h3.6
				V377H178l-12.5-10.4c-0.3-0.3-0.6-0.5-0.8-0.7s-0.4-0.4-0.6-0.7c0.1,0.5,0.1,1,0.1,1.5s0,0.9,0,1.2v9.1h-3.6v-16.9H163.2
				L163.2,360.1z"/>
			<path class="st0" d="M189.8,373.8h5.1c2.7,0,4.7-0.4,5.8-1.3c1.1-0.8,1.7-2.2,1.7-4.2c0-1.7-0.5-3-1.4-3.9s-2.3-1.3-4.2-1.3h-7
				L189.8,373.8L189.8,373.8z M196.8,360.1c3.1,0,5.5,0.7,7.2,2.2s2.5,3.5,2.5,6.2c0,1.6-0.3,3-1,4.3s-1.6,2.3-2.8,3
				c-0.7,0.5-1.7,0.8-2.8,1s-2.5,0.3-4.2,0.3h-9.9v-16.9L196.8,360.1L196.8,360.1z"/>
			<polygon class="st0" points="88.8,369.5 88.8,377 84.8,377 84.8,360.1 88.8,360.1 88.8,367.1 98.2,360.1 103.9,360.1 92.7,368 
				105.3,377 99,377 			"/>
			<polygon class="st0" points="63.2,377 63.2,360.1 80.6,360.1 80.6,362.9 67.1,362.9 67.1,366.7 75,366.7 75,369.6 67.1,369.6 
				67.1,373.8 80.8,373.8 80.8,377 			"/>
			<path class="st0" d="M227.2,373.8v-10.7h-13.1v10.7H227.2z M214.4,377c-1.6,0-2.8-0.3-3.4-0.8c-0.6-0.6-0.9-1.6-0.9-3.2v-8.9
				c0-1.5,0.3-2.6,0.9-3.1c0.6-0.6,1.7-0.9,3.4-0.9h12.5c1.6,0,2.8,0.3,3.3,0.9c0.6,0.6,0.9,1.6,0.9,3.1v8.9c0,1.5-0.3,2.6-0.9,3.2
				c-0.6,0.6-1.7,0.8-3.3,0.8H214.4z"/>
			<path class="st0" d="M138.5,373.8h13.1v-10.7h-13.1V373.8z M138.7,377c-1.6,0-2.8-0.3-3.4-0.8c-0.6-0.6-0.9-1.6-0.9-3.2v-8.9
				c0-1.5,0.3-2.6,0.9-3.1c0.6-0.6,1.7-0.9,3.4-0.9h12.5c1.6,0,2.8,0.3,3.3,0.9c0.6,0.6,0.9,1.6,0.9,3.1v8.9c0,1.5-0.3,2.6-0.9,3.2
				c-0.6,0.6-1.7,0.8-3.3,0.8H138.7z"/>
			<polygon class="st0"
					 points="19.9,360.1 39.5,360.1 39.5,363.1 31.7,363.1 31.7,377 27.7,377 27.7,363.1 19.9,363.1 			"/>
			<polygon class="st0" points="113.9,377 111.1,377 104.6,360.1 108.7,360.1 113,371.4 117.5,360.1 120.3,360.1 124.9,371.4 
				129,360.1 132.6,360.1 126,377 123.3,377 118.6,365.3 			"/>
		</g>
	</g>
</g>
	<g>
	<g id="XMLID_5_">
		<g>
			<path class="st1" d="M209.4,282.2c-0.2-0.6-1.2-1.1-1.3-1.8c-0.1-0.4,0.2-0.6,0.2-1.1c0.7-0.7,1.3-1.3,1.9-2
				c0.4-0.5,0.7-0.7,1.4-0.9c1.5-0.4,3.6-0.8,5.2-1.3c0.2,0,0.2,0.4,0.2,0.4c0.1,0.9,0.1,1.8,0.1,2.7c0.4,5.2-3.2,7.9-7.6,8.8
				c0-0.1,0.2-0.3,0.3-0.4c0.9-0.8,2.4-1.4,3.4-2.2C212.2,283.7,210.8,283,209.4,282.2z"/>
			<path class="st1" d="M193.6,279.4c-1,0.3-2.4-0.1-3.4,0.3c-0.1-5.1-0.1-10.2-0.2-15.4c0.9-0.2,1.9-0.5,3-0.7s2.3-0.4,3.3-0.6
				c0.3-0.1,0.6-0.4,1-0.5c0.5-0.1,0.9,0.3,1.3,0.3c0.2,0.5,0,1.5,0.3,2c-0.7,0.6-1.2,1-1.5,2c-0.4,0.9-0.9,1.7-1.5,2.5
				c-0.5,0.8-1,1.6-1.6,2.5c-0.2,0.3-0.4,0.5-0.6,0.7c-0.1,0.1-0.1,0.3-0.2,0.4c-0.4,0.5-1,0.6-1.2,1.3c0.4,0.3,1.3,0.1,2,0
				s1.5,0.1,1.8-0.3c0.1-0.2-0.1-0.3-0.1-0.7c0.2-0.3,0.6-0.5,0.7-1c1.1-0.9,1.8-1.9,2.8-3c0.3-0.3,0.6-0.9,0.9-1
				c0.5-0.2,1.4-0.1,2.1-0.1c3.3-0.2,5.9-0.3,9.2-0.5c-0.2-0.5-0.8-0.6-0.9-1.3c-0.5-0.3-1,0.1-1.6,0.2c-0.5,0.1-1.2,0.1-1.9,0.1
				c-0.6,0.1-1.3,0.2-1.8,0.1c-0.3,0-0.5-0.3-0.8-0.3c-0.6,0-1.1,0.4-1.8,0.5c-0.8,0.1-1.5,0-2.2-0.1c0.2-0.7,1-0.8,1.4-1.4
				c0.1-0.2,0.1-0.5,0.2-0.7c0.2-0.6,0.8-1.2,1.2-1.7s0.8-1,1.2-1.6c-0.2-0.3-0.2-0.6-0.4-0.9c-1.5,0.1-3,0.3-4.3,0.6
				c0.5-1.9,1-3.9,1.5-5.8c0.2-0.7,0.3-1.4,0.5-2c0.4-1.4,1.7-2.5,2.4-3.7c0.3,0.3,0.3,0.8,0.4,1.3c0.1,0.4,0.3,0.9,0.3,1.3
				c0.3,1.8,0.1,3.7,0.3,5.3c0.7,0.3,1.3,0.7,1.9,1.1c0.3-0.1,0.3-0.4,0.5-0.7c0.1-0.2,0.3-0.5,0.4-0.7c0.1-0.7-0.1-1.6-0.1-2.4
				c-0.1-2.3-0.1-5.4-0.2-7.9c0-1.4-0.1-2.8-0.2-4c0.2-0.1,0.3-0.7,0.2-1c-0.5-0.3-0.5,0.4-0.8,0.7c-0.5,0.5-1.6,0.9-2.1,1.3
				c-0.3,0.3-0.4,0.8-0.7,0.9c-0.7,1.8-1.7,3.5-2.4,5.4c-0.7,1.8-1.6,3.6-2.4,5.4c-0.5-0.3-0.8-0.9-1.3-1.2
				c-1.3,0.1-2.5-0.1-2.9,0.9c-1.2,0.4-2,1.2-3.3,1.5c-0.1-2,0.6-3.3,1.2-4.7c0.5-1.1,0.9-2.2,1.5-3.2c0.6-1.1,1.1-1.8,2.1-2.4
				c0.5,0,0.8-0.2,1-0.4c0-1.2-0.2-2.8-0.3-4c1.8-0.2,3.9-0.4,5.8-0.6c2.1-0.2,4-0.5,5.8-0.6c0.5,0,1.1,0.1,1.7,0.3
				c0.3,0.1,1.3,0.5,1.3,0.7c0,0.1-0.6,0.7-0.7,0.9c-0.1,0.4-0.1,1.2-0.1,1.6c-0.1,1-0.2,2.1-0.3,3.2c-0.1,0.5-0.2,1.3-0.1,1.6
				c0,0.2,0.3,0.3,0.4,0.5c0.2,0.4,0.1,1.2,0.2,1.9c0.1,0.6,0.1,1.3,0.1,1.8c0.1,1.2,0.3,2.6,0.3,3.6c0,0.6-0.5,1.3-0.1,1.8
				c0.9-0.9,1.8-1.9,2.5-3c-0.1-3.8,0-7-0.1-10.9c0.9,1.7,1,3.9,1.2,6.3c0.6,7.6,1.1,16,1.7,23.6c-0.5-0.2-1-0.4-1.5-0.7
				c-0.9-0.5-2.4,0.1-3.6,0.3c-1.1,0.2-2.3,0.4-3.1,0.7c-0.4,0.1-0.7,0.4-1.1,0.5c-1.2,0.4-2.7,0.4-4,0.7c-0.4-0.3-0.5-0.9-0.7-1.3
				c0.9-1.4,2-2.6,2.9-3.9c-0.1-0.2-0.2-0.4-0.3-0.5c-1.2,0.1-2.3,0.3-3.5,0.4c-0.2,0.1-0.1,0.4-0.3,0.5c0.2,2.1-1.1,3.8-1.6,5.6
				c-1.8,0.8-3.7,1.2-5.4,2C194.4,278.9,194,279.3,193.6,279.4z"/>
			<path class="st1" d="M190.3,280.4c0.3,0.1,0.4,0.4,0.6,0.6c1.7-0.2,3.5-0.3,5.3-0.8c0.8-0.2,1.6-0.6,2.5-0.9s1.8-0.5,2.6-0.8
				c0.9-0.3,1.7-0.7,2.6-0.9c0.9-0.2,1.8-0.4,2.7-0.7c0.6-0.2,1.2-0.5,1.9-0.5c-0.5,0.9-1.1,1.8-1.8,2.6c-0.6,0.8-1.2,1.7-1.8,2.5
				c-0.7,0.5-1.7,1-2.4,1.6c-0.7,0.5-1.2,1.2-1.8,1.9c-0.2,0.2-0.6,0.5-0.9,0.9c-0.3,0.3-0.8,0.7-0.7,1.1c0.1,0.3,0.4,0.4,0.7,0.5
				C194.4,288.1,191.1,285.1,190.3,280.4z"/>
			<path class="st1" d="M203.9,286.7c-0.2-0.6-0.5-0.9-0.7-1.5c1-1,2.1-1.9,3.3-2.7c1.1,0.9,2.4,1.6,3.4,2.6c-0.6,0.5-1,1-1.6,1.4
				C207.1,286.6,205.4,286.7,203.9,286.7z"/>
			<path class="st1" d="M194.2,262.1c-1.5,0.4-2.8,1-4.1,1.3c-0.1-1,0-1.8-0.1-2.8c0.9,0,1-0.9,1.3-1.7c0.3-0.6,0.5-1.1,0.7-1.5
				c0.9-0.2,2-0.3,3-0.6c0.4-0.2,0.8-0.6,1.4-0.4c0.3,0.1,0.4,0.5,0.8,0.6c0.2,1.4,0.6,2.6,0.8,4.1c-0.2,0-0.4-0.1-0.5,0
				C196.7,261.5,195.3,261.7,194.2,262.1z"/>
			<path class="st1" d="M195.7,242.7c-1.3,2.6-2.7,5.3-3.8,8.1c-0.2,0.5-0.4,1-0.6,1.5c-0.4,1-0.9,2.1-1.3,3.3
				c-0.3-2.9,0.1-5.9,1-8.4c0.9-2.4,2.4-4.7,4.9-5.2C196.1,242.3,195.8,242.5,195.7,242.7z"/>
		</g>
	</g>
</g>
</svg>
