<?xml version="1.0" encoding="utf-8"?>
<!-- Generator: Adobe Illustrator 21.1.0, SVG Export Plug-In . SVG Version: 6.00 Build 0)  -->
<svg version="1.1" id="Layer_1" xmlns="http://www.w3.org/2000/svg" x="0px"
	 y="0px"
	 viewBox="0 0 620 620" style="enable-background:new 0 0 620 620;" xml:space="preserve">
<style type="text/css">
	.st0{fill:#FFFFFF;}
</style>
	<g>
	<g id="XMLID_5_">
		<g>
			<path class="st0" d="M387.9,562.8c-12-13.5-27-24-40.5-36c-1.5-7.5-12-15-10.5-22.5c0-4.5,4.5-7.5,4.5-12c9-6,18-12,27-18
				c6-4.5,9-7.5,18-7.5c18-1.5,43.5-1.5,63-3c3,0,1.5,4.5,1.5,6c0,10.5-3,21-4.5,31.5c-7.5,60-54,84-106.5,85.5c0-1.5,3-3,4.5-4.5
				C356.4,573.3,374.4,568.8,387.9,562.8z"/>
			<path class="st0" d="M485.4,180.3c-10.5,88.5-22.5,186-33,276c-6-3-10.5-7.5-15-10.5c-9-7.5-28.5-4.5-42-4.5s-27-1.5-37.5,0
				c-4.5,0-9,3-13.5,3c-15,1.5-31.5-1.5-48-1.5c-3-4.5-4.5-12-6-16.5c13.5-13.5,28.5-25.5,42-39c0-3-1.5-4.5-3-7.5
				c-15-1.5-27-3-40.5-3c-3,0-3,4.5-4.5,4.5c-3,25.5-21,42-31.5,61.5c-22.5,4.5-46.5,6-67.5,10.5c-4.5,1.5-9,4.5-15,4.5
				c-12,1.5-27-6-39-4.5c10.5-60,21-118.5,31.5-178.5c10.5,0,22.5-1.5,36-1.5s27,1.5,40.5,0c4.5,0,7.5-3,12-3c6,0,10.5,4.5,13.5,6
				c1.5,6-3,18-1.5,24c-9,4.5-15,9-22.5,19.5c-6,10.5-15,18-22.5,25.5s-15,16.5-24,24c-3,3-6,4.5-9,7.5c-1.5,1.5-1.5,3-3,4.5
				c-4.5,4.5-13.5,4.5-16.5,12c4.5,4.5,15,4.5,22.5,4.5c9,1.5,16.5,4.5,22.5,0c1.5-1.5-1.5-4.5,0-7.5c3-3,7.5-4.5,10.5-9
				c15-7.5,24-18,39-28.5c4.5-3,9-9,12-9c6-1.5,16.5,1.5,25.5,3c39,6,67.5,10.5,108,15c-1.5-6-7.5-9-7.5-16.5
				c-4.5-4.5-12-1.5-18-1.5s-15-1.5-22.5-3s-16.5-1.5-21-3c-3-1.5-6-4.5-9-6c-6-1.5-13.5,3-22.5,1.5c-9,0-16.5-3-25.5-6
				c3-7.5,13.5-7.5,19.5-13.5c1.5-1.5,1.5-6,3-7.5c4.5-6,12-12,16.5-16.5c6-4.5,12-10.5,16.5-16.5c-1.5-3-1.5-7.5-3-10.5
				c-18-1.5-34.5-3-51-3c9-21,21-42,30-64.5c3-7.5,6-15,10.5-21c7.5-15,25.5-25.5,36-37.5c3,4.5,1.5,10.5,1.5,16.5
				c0,4.5,1.5,10.5,1.5,15c0,21-7.5,43.5-7.5,61.5c7.5,4.5,13.5,12,19.5,16.5c3,0,4.5-4.5,7.5-6c1.5-3,4.5-4.5,6-7.5
				c3-7.5,3-18,4.5-28.5c4.5-27,10.5-63,15-91.5c3-16.5,4.5-31.5,7.5-46.5c3-1.5,4.5-7.5,4.5-10.5c-4.5-4.5-7.5,3-10.5,6
				c-6,4.5-19.5,6-27,10.5c-4.5,3-6,7.5-10.5,9c-12,19.5-27,36-40.5,57c-12,19.5-27,37.5-40.5,57c-6-4.5-7.5-12-12-16.5
				c-15-3-28.5-6-36,3c-15,1.5-25.5,10.5-42,10.5c3-22.5,15-36,25.5-51c7.5-12,15-22.5,24-34.5c9-10.5,16.5-18,28.5-22.5
				c6,0,9,0,12-3c3-15,4.5-33,6-46.5c21,1.5,46.5,3,69,6c24,3,48,3,69,6c6,1.5,13.5,3,19.5,7.5c4.5,1.5,13.5,7.5,13.5,10.5
				c0,1.5-9,6-10.5,9c-1.5,4.5-3,13.5-4.5,18c-3,12-6,24-10.5,36c-1.5,6-4.5,13.5-4.5,18c0,3,3,3,3,7.5c1.5,4.5-1.5,13.5-1.5,21
				s-1.5,15-3,21c-1.5,15-1.5,30-4.5,42c-1.5,7.5-9,13.5-4.5,21c12-9,25.5-18,36-30c7.5-43.5,15-81,24-126
				C492.9,126.3,488.4,151.8,485.4,180.3z"/>
			<path class="st0" d="M326.4,460.8c7.5,0,15-3,24-1.5c-7.5,10.5-16.5,18-25.5,25.5s-16.5,16.5-27,25.5c-9,4.5-21,7.5-31.5,13.5
				c-9,4.5-16.5,12-25.5,18c-3,3-7.5,4.5-13.5,7.5c-3,3-10.5,6-10.5,10.5s4.5,6,7.5,7.5c-64.5-6-94.5-48-93-103.5c3,3,4.5,6,6,9
				c21,1.5,42,4.5,63,3c10.5,0,19.5-3,30-4.5s21-1.5,31.5-4.5c10.5-1.5,21-3,31.5-4.5C305.4,462.3,315.9,462.3,326.4,460.8z"/>
			<path class="st0" d="M312.9,525.3c10.5,13.5,24,24,33,37.5c-7.5,4.5-13.5,9-21,13.5c-13.5-3-34.5-4.5-51-7.5c0-7.5-4.5-12-4.5-18
				C282.9,538.8,297.9,531.3,312.9,525.3z"/>
			<path class="st0" d="M264.9,208.8c0,16.5,1.5,31.5,0,48c-3,0-4.5-1.5-6-1.5c-10.5,3-27,3-40.5,4.5c-18,1.5-34.5,6-51,6
				c1.5-12,4.5-21,6-31.5c10.5,3,13.5-9,19.5-16.5c4.5-6,9-12,12-15c10.5,0,24,1.5,36,0c6-1.5,10.5-4.5,18-1.5
				C260.4,201.3,260.4,207.3,264.9,208.8z"/>
			<path class="st0" d="M282.9,33.3c0,3-3,6-4.5,7.5c-21,27-43.5,55.5-63,85.5c-3,6-7.5,10.5-10.5,16.5c-7.5,10.5-15,22.5-22.5,34.5
				c3-34.5,13.5-69,31.5-94.5C230.4,57.3,251.4,33.3,282.9,33.3z"/>
		</g>
	</g>
</g>
</svg>
