<svg xmlns="http://www.w3.org/2000/svg" viewBox="0 0 579.2 213"><style type="text/css">
	.st0{fill:#666666;fill-opacity:0;}
	.st1{fill:#FFFFFF;}
	.st2{fill:#DC0000;}
</style><rect class="st0" width="579.2" height="213"/><path class="st1" d="M549.9 70.2c-1.3 1.5-2.7 2.9-4.2 4.3 -0.2 0.7-0.5 1.3-0.7 2 -3.9 2.7-6.1 6.9-9.6 9.8 -2.2 1.9-5.3 3.3-7.9 5.1 -2.6 1.8-5.1 4.1-7.6 5.4 -2.6 1.3-5.4 1.4-8.4 2 -6.4 1.3-11.9 3.2-19.4 3.8 -9.9 0.8-22 2.1-32.5 1.1 -3.4-0.3-8.2-0.3-12.3-0.9 -1-0.1-1.9-0.7-2.9-0.9 -2-0.3-4.2 0-6.2-0.2 -2.6-0.3-5-0.9-7.6-0.9 -8 0-15.6 0.6-23.1 1.6 -4.5 0.6-9.9-0.1-14.8-1.6 -2.6-2.3-4.4-5.3-5.7-8.7 2.2-1.1 3.6 2.1 4.4 0 1.8 2.8 7.4 0.7 10.1 0 5.5-1.4 12.9-2.1 17.5-3.6 4.7-1.5 7.2-6.2 8.6-9.4 -7.1 0.9-15.1 6.2-23.6 7.4 -6.7 1-15.2 0.1-14-7.4 0.7-4.2 4.8-5.2 8.6-8.3 3.8-3 5.5-4.9 9.6-6.5 6.5 2.4-1.9 6.3-4.9 8.3 -3.5 2.2-5.7 4.4-7.1 6.5 1.3 2.2 4.7 2.2 6.9 2.2 8.2 0.1 17.8-3.8 25.3-5.8 4.3-1.2 8.2-0.7 10.6 2 -1.1 5.4-5.2 8.1-8.1 11.9 14.8 2 31.3 4 46.8 2.2 -0.2 0.7 0.3 0.8 0.2 1.3 2.1-1.4 4.9-0.7 7.1-0.9 1.7-0.1 3.6-0.6 5.4-0.9 2.6-0.4 4.7-0.3 7.9-0.9 1.6-0.3 3.1-1.3 4.7-1.6 0.7-0.1 1.5 0.1 2.2 0 3.4-0.5 7.3-2.4 11.1-3.6C528.6 81.1 538.8 74.9 549.9 70.2z"/><path class="st1" d="M431.8 59.7c0 1.6-1 2.3-2 3.1 -3.7-0.3-9.4 2.6-13-0.4 -3.5 0.7-6-1.2-9.1-1.6 -4.8-3.3-12.6-3.8-15-9.2 2.4-0.8 4.4-2.6 7.1-3.1 1.3-0.3 2.4 0.1 3.7 0 1-0.1 1.7-0.6 2.5-0.7 1-0.1 1.7 0.6 3 0.7 1 0.1 2.2-0.5 3.2-0.4 4.9 0.2 8.3 3.1 12.1 4.7C426 55.7 429.2 57.4 431.8 59.7z"/><path class="st1" d="M374.7 101.3c2.7 0.2 5.2 0.9 7.9 0.5 -7.1 3.4-18.6 3.9-29.5 3.8 -4.2 0-8.3 0.5-10.8-0.9 -0.8-2.4 0.4-4.6 1.7-5.8 8.5-2.8 14.9-7.5 20.9-12.5 0.7-2.1 2-3.7 1.7-6.7 -5.1 4.6-11.4 8.1-16.7 12.5 -4.4 1.7-11.5 4.2-18 4.7 -2.1 0.2-4 0-5.4 0.9 -2.4 1.5-3.1 4-4.2 6.5 0.1 1 1.6-0.1 1.7 0.4 -1.4 4.7-5.7 5.8-10.8 6.7 -5.7-8.2 6.5-14.9 9.1-21.3 -3.8-0.7-9.9 6.3-13 2.2 -1.6-2 0.2-4.9-0.5-6.7 1.3-1.9 4-0.9 5.9-1.6 7.9-2.7 13.1-11.1 18-16.6 0.3-2.4 2.2-3.3 2-6.3 -2.6 1.3-6 2.3-7.9 4.7 -0.6 0.8-0.4 1.8-1.2 2.5 -2.3 1.8-7.7 0.9-6.9-2.9 0.8-3.5 10.4-9.1 15.3-9.2 4-0.1 8.6 2 9.6 4.7 -1.1 5.2-5.4 7.5-7.9 11.4 -0.6 0-1.2 0-1.7 0 -2.6 2.8-5.8 5-8.1 8.1 1.1-0.3 2.1-0.3 2.9-0.7 2.4-1 3.4-3.8 5.7-4.2 1.6-0.3 5.5 0.2 7.9 0.4 4.8 0.5 9.9 1.6 13.5 2.9 2.8 3.8-2.9 6.1-6.9 6.9 -2.7 0.6-4.8 0.9-7.1 1.6 -4.5 1.4-6.9 4-9.6 5.4 16.4 0.8 26.5-8.1 34.7-16.3 0.5-2.8 0.7-4.7 0.2-7.2 3.2 1.3 8.3-2.5 12.5-0.9 2.1 2.5-1.7 4.8-2.7 9.2 -1.4 6 0.2 14.8-4.9 17.2 -6.4 1.3-13.3 2.2-18.9 4.3C357.1 103.3 366.8 100.7 374.7 101.3z"/><path class="st1" d="M310.5 42.7c0.9 9.2-7.1 12.9-8.1 20.8 -0.5 4 1 9.8 0 13.9 -0.3-0.1-0.2-0.6-0.2-0.9 -1.1 0.2-0.7 1.7-1.7 2 0.4 0.9 1.1 0.5 2.2 0.4 -0.2 7.1-2.3 14.1-4.4 20.1 -0.4 0-0.8 0-1.2 0 -0.1 2.1-1.8 3.4-0.7 5.4 0.1 1-0.9-0.2-1.2 0.4 -0.1 0.9 0.1 1.5 0.5 2 -1.7 4.4-3.9 12.3-3.2 19 0.4 3.5 2.4 5.6 3.9 7.8 -1.3-0.2-1.5 0.6-2 1.1 -12.1-1.9-9.5-20.4-5.2-28.4 -0.2-1.9 0.3-3.5 1.5-4.9 0.9 0.2 0 0.8 0.5 1.1 0.7-0.2 0.8-0.9 1-1.6 -2.1-0.2-0.9-2.4 0.3-3.1 0.5 0.8-0.8 1.6-1 2.5 1.6-0.3 1.6-2.1 2.2-3.4 0.1-0.6-1.3 0.2-1.2-0.5 1.3-5 2.9-8.8 3.2-15 -0.2-0.9 1-0.6 1-1.3 -1.1-4-1.1-9-2.2-13 -8.7 5.8-10.6 17.8-20.4 22.6 -5.8 0.5-7.4-2.8-10.3-4.9 -8 8.8-20.3 18.2-33.7 22.2 -2.4 0.7-8 1.7-11.8 0.9 -2.8-0.6-4.3-3.3-6.6-4.2 -0.3-1.5-1.2-2.3-2-3.4 -0.1-1.6-0.3-3.2 0.5-4.9 4.7-3.1 8.1-7.4 12.1-11.2 -0.1-1.8 1.8-1.9 1.5-4 -3.2-1.2-8.9-2.3-8.6-5.8 0.1-1.6 4.6-4.3 7.4-4.9 3.3-0.8 6.7 0.3 9.3-1.1 1.4 1 4.8 0.7 7.1 0.4 3.6 0.8 6.3 2.4 9.8 3.1 1.9 1.8 5.4 4.5 2 7.8 -0.5 0-1 0-1.5 0 -6.1 4.5-15.3 7.4-17 15.2 4.1-0.4 7.7-2.4 11.1-4 6.8-3.3 12.4-8.1 18.2-12.1 1.4-2.2 2.6-4.8 2.2-7.6 -0.1-0.7 1-0.5 1-1.1 -0.3-3.4 1.6-5 1.7-6.9 0.7-0.6 0.8 0.4 1.7 0.2 4.4-2.6 8.3-5.6 15.5-5.6 5.6 3.9-5 7-6.4 10.3 -1 2.2-1.4 5-2 7.6 1.5-0.2 2.8-1.5 3.9-2.5 1.1-0.9 2.3-2.1 3.4-3.1 3.2-2.9 6.7-5.7 9.1-9.4 2.4-3.6 1.7-8.9 3.4-13.7 0.8-2.2 3.4-6.2 5.2-7.8 1.3-1.2 4.1-3 5.2-2.9 3.1 0.2 1.9 5.1 4.9 5.8C310.2 42.5 310.3 42.6 310.5 42.7z"/><path class="st1" d="M241.1 59.2c1.6 0.9 7.1 2.8 4.7 5.1 -0.9 0.9-8.1 1.1-11.3 0.4 -4.1-0.9-6.3-3.2-8.6-3.1 -1.2-2.7-4.9-3.1-5.9-6 0.3-1.5 0.1-2.5 1-4.3 1.3-0.2 2.6-0.5 3.4-1.1C231.3 50.5 237.8 54.3 241.1 59.2z"/><path class="st1" d="M204.2 70c1.9 5.3-1.4 9.2-6.6 9.4 -2.2 0.1-4-1.4-6.4 0 -1.9-1.2-0.3-3.1-0.5-4.9 -0.5-5.2-4.8-8.4-7.9-11.6 -1.8-2-4-3.8-4.9-6l0.1-0.1c0.1-0.1 0.2-0.2 0.4-0.2 7.4 0.5 12.7 3.9 18.7 7.2C200.5 65.6 203.3 67.5 204.2 70z"/><path class="st1" d="M192.7 99.1c4.7 1.2 10.8 3.9 6.6 8.3 -1.4 1.5-5.2 4.4-6.6 5.1 -0.5 0.3-1.3 0-1.7 0.2 -3.9 1.5-7 4.5-10.3 6.7 1.5 1.7 3.6 2.9 3 6.5 -4 4.8-15.3 11.3-24.6 8.7 -2.9-0.8-5.8-5.2-3-8.7 2.6-3.3 11-5.8 13.3-9.8 -1.9-0.6-5.4 0.2-7.4-0.4 2.6-2.4 6.8 0.1 9.6-0.2 2.3-0.3 7.1-4.3 8.9-5.6 3.1-2.3 6.4-3.5 8.4-6 -0.8-1.8-2.4-1.1-4.2-1.3 -6-0.9-10.9-1.3-16.2 0.9 -1.5 0.6-2.8 1.8-4.4 2.5 -1.6 0.6-3.6 0.9-5.4 1.6 -3.4 1.2-5.6 3.2-10.6 2 -1-1.3-6.4-5.4-4.4-9.4 0.8-1.6 3.9-2.4 5.4-3.4 5-3.3 8.7-6.9 13-11 3.8-3.6 7.1-7.1 9.1-11.6 1.2-2.7 0.8-8.3 5.7-6.7 2.5 0.8 3.2 4.2 4.4 5.8 -1.1 2.3-0.1 5.4-2 7.4 -0.7 7.7-5.3 11.9-9.1 16.8 2.3 0.7 5.4-0.3 8.6-0.2C182.7 97.2 188.3 98 192.7 99.1zM164.6 130.6c6.4 0.6 19.7-3.1 13.3-9.2 -0.3 0-0.3-0.3-0.7-0.2 -2.5 1.3-4.6 2.9-6.9 4.5C168.3 127.1 165.6 128.3 164.6 130.6z"/><path class="st1" d="M144.2 36.9c11.2-3.9 40.9-9.1 40.1 8.1 -0.1 2.8-2.8 6.3-4.4 8.9 -0.6 1-1.2 1.9-1.9 2.9h-0.1v0.1c-6 8.8-13.5 15.8-22.2 21.6 -2.5 1.7-4.3 3.9-8.4 3.4 0.3-1.2 0.5-3.5 0-4.7 -1.4-0.4-0.9 1-2.2 0.7 -0.3-1.6 0.9-3 1.5-4.5 0.4-1.1 0.3-2.3 1-3.1 1.1-1.3 2.7-1.6 3.4-2.9 0.4-0.7 0.2-1.5 0.7-2.2 0.6-0.8 1.8-1.2 2.5-2 0.4-0.5 0-1.1 0.2-1.6 0.6-1.1 2.3-1.5 2.7-2.7 0.7 0 1.3 0 2 0 1.7-2.1 1.4-5.9 4.7-6.5 0.1-0.8-1-0.6-0.7-1.6 1.6-1.3 3.3-2.5 3.7-4.9 1.9-0.8 2.7-2.6 3.4-4.5 -1.3-2.3-5.6-1.7-8.4-2 -1-0.1-1.9-0.7-2.7-0.7 -1.4 0-2.5 0.8-3.9 1.1 -1.8 0.4-4.4 0.4-6.6 0.9 -4.4 1-7.6 2.6-10.6 0.4C138 38.6 141.7 37.7 144.2 36.9z"/><path class="st1" d="M178 56.7l-0.1 0.1v-0.1C177.9 56.8 178 56.7 178 56.7z"/><path class="st1" d="M137.8 71.5c1.3 3.7 1.1 9.1 0.7 13.6 -0.4 6.2-3.4 11.7-4.2 17 -2.8 3.4-4.3 11.7-11.6 7.6 -2.9-3.1-2-7.3 0-11 0.9-1.6 2.6-2.6 3.4-4 2.1-3.2 3.7-9 4.9-13.2 1.4-4.9 2.1-11.3 1.7-17.5 -0.1-0.4 0.2-0.4 0.2-0.7 0.2 0 0.5 0 0.7 0C134.4 66.3 136.8 68.6 137.8 71.5z"/><path class="st1" d="M121.3 71.8c0.1 1.1-1.2 2-1.7 3.6 -0.4 1.1-0.2 2.3-0.5 3.1 -1.5 4.2-4.9 9.2-4.7 13 1.6 0.9 2.1-2.2 3.7-1.3 -1 3-3.2 4.8-4.7 7.4 0.2 2.8-1 4.1-0.5 6.7 -1.3 2-2.4 4.1-5.2 4.3 -4.5 0.3-9.2-3.5-9.3-7.8 -0.3-6.2 3.1-13.6 3.4-18.6 -1.8-0.1-3.1 1.3-4.4 2.2 -1.4 1-3 1.7-4.4 2.7 -4.5 3.1-7.9 7.2-11.6 10.7 -1.7 3.7-5.2 6.3-6.4 10.5 -0.7 2.4-0.3 5.1-1.5 7.4 -3.3 6.1-16.7 2-17.5-3.6 -0.2-1.3 0.7-2.7 0.7-4 0.3-4.7-0.6-12.7-6.4-11.9 -2.4 0.3-3.3 3.4-4.2 5.1 -2.1 0.1-4 1.4-6.1 0.9 -1.5-0.3-2.6-2.6-4.2-4 -2.4-2.2-8-5.7-6.4-10.5 0.6-2 4.9-4.4 6.6-5.8 2.7-2.1 4.1-4.3 6.4-6 1.6-3.2 4.7-5.8 7.4-9.2 3.3-4.2 3.6-9.9 7.1-13.4 3-3 6.7 0.4 7.4 3.1 1.7 6.5-1.7 14.3-2.5 19.9 -2.4 1.3-2 4.1-2.9 6.5 -0.6 1.6-2.2 2.2-2.7 3.6 2.7 2.2 7.6 4.4 10.3 6.5 1.2 0.9 2.7 3.6 4.4 3.6 1.4 0 3.3-2.5 4.7-3.8 4.2-3.9 8.9-8.2 13.5-11.2 7.4-4.8 13.3-10 20.2-13.2 2.2 1.3 4.9-0.3 7.1 0C118.6 68.4 121.1 70.4 121.3 71.8z"/><path class="st2" d="M533.9 136.9c-0.8-0.9-1.8-1.6-2.7-2.4 -0.1-0.5-0.8-1-0.7-1.5 0-0.3 0.3-0.5 0.3-0.8 0.6-0.4 1.2-0.8 1.8-1.2 0.4-0.3 0.6-0.5 1.2-0.5 1.2-0.1 2.9-0.1 4.2-0.2 0.2 0 0.1 0.3 0.1 0.4 0 0.7-0.2 1.4-0.3 2.1 -0.5 4-3.6 5.6-7.1 5.7 0-0.1 0.2-0.2 0.3-0.3C531.8 137.6 533 137.3 533.9 136.9z"/><path class="st2" d="M540.4 111.4c-0.7 5.9-1.5 12.4-2.2 18.4 -0.4-0.2-0.7-0.5-1-0.7 -0.6-0.5-1.9-0.3-2.8-0.3 -0.9 0-1.8-0.1-2.5 0 -0.3 0-0.6 0.2-0.9 0.2 -1 0.1-2.1-0.1-3.2-0.1 -0.2-0.3-0.3-0.8-0.4-1.1 0.9-0.9 1.9-1.7 2.8-2.6 0-0.2-0.1-0.3-0.2-0.5 -1-0.1-1.8-0.2-2.7-0.2 -0.2 0-0.2 0.3-0.3 0.3 -0.2 1.7-1.4 2.8-2.1 4.1 -1.5 0.3-3.1 0.4-4.5 0.7 -0.3 0.1-0.6 0.3-1 0.3 -0.8 0.1-1.8-0.4-2.6-0.3 0.7-4 1.4-7.9 2.1-11.9 0.7 0 1.5-0.1 2.4-0.1s1.8 0.1 2.7 0c0.3 0 0.5-0.2 0.8-0.2 0.4 0 0.7 0.3 0.9 0.4 0.1 0.4-0.2 1.2-0.1 1.6 -0.6 0.3-1 0.6-1.5 1.3 -0.4 0.7-1 1.2-1.5 1.7s-1 1.1-1.6 1.6c-0.2 0.2-0.4 0.3-0.6 0.5 -0.1 0.1-0.1 0.2-0.2 0.3 -0.3 0.3-0.9 0.3-1.1 0.8 0.3 0.3 1 0.3 1.5 0.3 0.6 0.1 1.1 0.3 1.5 0 0.1-0.1-0.1-0.3 0-0.5 0.2-0.2 0.5-0.3 0.7-0.6 1-0.5 1.6-1.2 2.6-1.9 0.3-0.2 0.6-0.6 0.8-0.6 0.4-0.1 1.1 0.1 1.7 0.2 2.6 0.4 4.5 0.7 7.2 1 -0.1-0.4-0.5-0.6-0.5-1.1 -0.3-0.3-0.8-0.1-1.2-0.1s-1-0.1-1.5-0.2 -1.1-0.1-1.4-0.2c-0.2-0.1-0.4-0.3-0.6-0.4 -0.4-0.1-0.9 0.2-1.5 0.1 -0.6 0-1.1-0.2-1.7-0.4 0.2-0.5 0.9-0.5 1.3-0.9 0.1-0.1 0.1-0.4 0.2-0.5 0.3-0.4 0.8-0.8 1.1-1.1 0.4-0.3 0.8-0.7 1.1-1.1 -0.1-0.2-0.1-0.5-0.2-0.7 -1.2-0.1-2.3-0.2-3.4-0.2 0.6-1.4 1.4-2.8 2-4.3 0.2-0.5 0.4-1 0.7-1.4 0.5-1 1.7-1.7 2.4-2.5 0.2 0.3 0.1 0.7 0.1 1.1 0 0.3 0.1 0.7 0.1 1 0 1.4-0.5 2.9-0.5 4.1 0.5 0.3 0.9 0.8 1.3 1.1 0.2 0 0.3-0.3 0.5-0.4 0.1-0.2 0.3-0.3 0.4-0.5 0.2-0.5 0.2-1.2 0.3-1.9 0.3-1.8 0.7-4.2 1-6.1 0.2-1.1 0.3-2.1 0.5-3.1 0.2-0.1 0.3-0.5 0.3-0.7 -0.3-0.3-0.5 0.2-0.7 0.4 -0.4 0.3-1.3 0.4-1.8 0.7 -0.3 0.2-0.4 0.5-0.7 0.6 -0.8 1.3-1.8 2.4-2.7 3.8 -0.8 1.3-1.8 2.5-2.7 3.8 -0.4-0.3-0.5-0.8-0.8-1.1 -1-0.2-1.9-0.4-2.4 0.2 -1 0.1-1.7 0.7-2.8 0.7 0.2-1.5 1-2.4 1.7-3.4 0.5-0.8 1-1.5 1.6-2.3 0.6-0.7 1.1-1.2 1.9-1.5 0.4 0 0.6 0 0.8-0.2 0.2-1 0.3-2.2 0.4-3.1 1.4 0.1 3.1 0.2 4.6 0.4 1.6 0.2 3.2 0.2 4.6 0.4 0.4 0.1 0.9 0.2 1.3 0.5 0.3 0.1 0.9 0.5 0.9 0.7 0 0.1-0.6 0.4-0.7 0.6 -0.1 0.3-0.2 0.9-0.3 1.2 -0.2 0.8-0.4 1.6-0.7 2.4 -0.1 0.4-0.3 0.9-0.3 1.2 0 0.2 0.2 0.2 0.2 0.5 0.1 0.3-0.1 0.9-0.1 1.4s-0.1 1-0.2 1.4c-0.1 1-0.1 2-0.3 2.8 -0.1 0.5-0.6 0.9-0.3 1.4 0.8-0.6 1.7-1.2 2.4-2 0.5-2.9 1-5.4 1.6-8.4C540.9 107.8 540.6 109.5 540.4 111.4z"/><path class="st2" d="M529.8 130.1c0.5 0 1-0.2 1.6-0.1 -0.5 0.7-1.1 1.2-1.7 1.7 -0.6 0.5-1.1 1.1-1.8 1.7 -0.6 0.3-1.4 0.5-2.1 0.9 -0.6 0.3-1.1 0.8-1.7 1.2 -0.2 0.2-0.5 0.3-0.9 0.5 -0.2 0.2-0.7 0.4-0.7 0.7s0.3 0.4 0.5 0.5c-4.3-0.4-6.3-3.2-6.2-6.9 0.2 0.2 0.3 0.4 0.4 0.6 1.4 0.1 2.8 0.3 4.2 0.2 0.7 0 1.3-0.2 2-0.3s1.4-0.1 2.1-0.3c0.7-0.1 1.4-0.2 2.1-0.3C528.4 130.2 529.1 130.2 529.8 130.1z"/><path class="st2" d="M528.9 134.4c0.7 0.9 1.6 1.6 2.2 2.5 -0.5 0.3-0.9 0.6-1.4 0.9 -0.9-0.2-2.3-0.3-3.4-0.5 0-0.5-0.3-0.8-0.3-1.2C526.9 135.3 527.9 134.8 528.9 134.4z"/><path class="st2" d="M525.7 113.3c0 1.1 0.1 2.1 0 3.2 -0.2 0-0.3-0.1-0.4-0.1 -0.7 0.2-1.8 0.2-2.7 0.3 -1.2 0.1-2.3 0.4-3.4 0.4 0.1-0.8 0.3-1.4 0.4-2.1 0.7 0.2 0.9-0.6 1.3-1.1 0.3-0.4 0.6-0.8 0.8-1 0.7 0 1.6 0.1 2.4 0 0.4-0.1 0.7-0.3 1.2-0.1C525.4 112.8 525.4 113.2 525.7 113.3z"/><path class="st2" d="M526.9 101.6c0 0.2-0.2 0.4-0.3 0.5 -1.4 1.8-2.9 3.7-4.2 5.7 -0.2 0.4-0.5 0.7-0.7 1.1 -0.5 0.7-1 1.5-1.5 2.3 0.2-2.3 0.9-4.6 2.1-6.3C523.4 103.2 524.8 101.6 526.9 101.6z"/><path class="st1" d="M69.9 150.2v4.7h13.5c1 0 1.9 0.1 2.6 0.2 0.7 0.2 1.3 0.4 1.7 0.8 0.4 0.4 0.7 0.9 0.9 1.6 0.2 0.7 0.3 1.5 0.3 2.5v3c0 1-0.1 1.8-0.3 2.5 -0.2 0.7-0.5 1.2-0.9 1.6 -0.4 0.4-1 0.6-1.7 0.8s-1.6 0.2-2.6 0.2H70.1c-1 0-1.9-0.1-2.6-0.2 -0.7-0.2-1.3-0.4-1.7-0.8 -0.4-0.4-0.7-0.9-0.9-1.6 -0.2-0.7-0.3-1.5-0.3-2.5v-0.6l4.5-0.9v2.6h15.3v-4.9H70.9c-1 0-1.9-0.1-2.5-0.2 -0.7-0.2-1.2-0.4-1.7-0.8 -0.4-0.4-0.7-0.9-0.9-1.6 -0.2-0.7-0.3-1.5-0.3-2.5v-2.4c0-1 0.1-1.8 0.3-2.5 0.2-0.7 0.5-1.2 0.9-1.6 0.4-0.4 1-0.6 1.7-0.8 0.7-0.2 1.5-0.2 2.5-0.2h12.3c1 0 1.8 0.1 2.5 0.2 0.7 0.1 1.2 0.4 1.7 0.8 0.4 0.4 0.7 0.9 0.9 1.5 0.2 0.6 0.3 1.4 0.3 2.3v0.5l-4.5 1v-2.5H69.9V150.2z"/><path class="st1" d="M95.1 146.5h22.2v3.7h-17.1v4.8h10v3.7h-10v5.3h17.3v4.1H95.1V146.5z"/><path class="st1" d="M123.2 167.9c-0.7-0.2-1.2-0.4-1.6-0.8 -0.4-0.4-0.7-0.9-0.9-1.6 -0.2-0.7-0.3-1.5-0.3-2.5v-4.5l5.1-1v6.5h9.9v-17.6h5V163c0 1-0.1 1.8-0.3 2.5s-0.5 1.2-0.9 1.6c-0.4 0.4-1 0.6-1.7 0.8s-1.5 0.2-2.5 0.2h-9.3C124.7 168.1 123.9 168 123.2 167.9z"/><path class="st1" d="M146.2 149.1c0.2-0.7 0.5-1.2 0.9-1.6 0.4-0.4 1-0.6 1.7-0.8s1.5-0.2 2.5-0.2h16c1 0 1.9 0.1 2.5 0.2 0.7 0.2 1.2 0.4 1.7 0.8 0.4 0.4 0.7 0.9 0.9 1.6 0.2 0.7 0.3 1.5 0.3 2.5V163c0 1-0.1 1.8-0.3 2.5s-0.5 1.2-0.9 1.6c-0.4 0.4-1 0.6-1.7 0.8s-1.5 0.2-2.5 0.2h-16c-1 0-1.9-0.1-2.5-0.2 -0.7-0.2-1.2-0.4-1.7-0.8 -0.4-0.4-0.7-0.9-0.9-1.6 -0.2-0.7-0.3-1.5-0.3-2.5v-11.4C145.9 150.6 146 149.8 146.2 149.1zM167.6 164v-13.7H151V164H167.6z"/><path class="st1" d="M179 146.5h3.4l15.2 12.8c0.4 0.4 0.9 0.7 1.3 1.1 0.4 0.4 0.8 0.8 1.2 1.2 -0.1-0.9-0.1-1.7-0.2-2.3 0-0.6-0.1-1.1-0.1-1.4v-11.4h4.5v21.6h-3.4L185 154.7c-0.3-0.3-0.6-0.6-0.9-0.8 -0.3-0.3-0.6-0.6-0.9-0.9 0.1 0.8 0.1 1.5 0.2 2.1 0 0.6 0 1 0 1.3v11.7h-4.5L179 146.5 179 146.5z"/><path class="st1" d="M215.8 150.3V164h15.8v-4.8h-8.2v-3.7h13.1v7.5c0 1-0.1 1.8-0.3 2.5s-0.5 1.2-0.9 1.6c-0.4 0.4-1 0.6-1.7 0.8s-1.5 0.2-2.5 0.2h-14.9c-1 0-1.9-0.1-2.5-0.2 -0.7-0.2-1.2-0.4-1.7-0.8 -0.4-0.4-0.7-0.9-0.9-1.6 -0.2-0.7-0.3-1.5-0.3-2.5v-11.4c0-1 0.1-1.8 0.3-2.5s0.5-1.2 0.9-1.6c0.4-0.4 1-0.6 1.7-0.8s1.5-0.2 2.5-0.2h14.9c1 0 1.8 0.1 2.5 0.2 0.7 0.1 1.2 0.4 1.7 0.8 0.4 0.4 0.7 0.9 0.9 1.5s0.3 1.4 0.3 2.4v0.5l-4.9 0.9v-2.4L215.8 150.3 215.8 150.3z"/><path class="st1" d="M265 168.1h-5v-17.8h-9.9v-3.9h25v3.9h-10v17.8H265z"/><path class="st1" d="M285.1 146.5h4.9l12.4 21.6h-5.7l-2.6-4.7h-13.7l-2.5 4.7h-5L285.1 146.5zM292 159.5l-4.7-8.8 -4.8 8.8H292z"/><path class="st1" d="M305.2 146.5h22.1v3.7h-17.1v4.8h10v3.7h-10v5.3h17.3v4.1h-22.4v-21.6H305.2z"/><path class="st1" d="M332.6 146.5h5.1v9l12-9h7.3l-14.3 10.2 16.1 11.5h-8.1l-13-9.5v9.5h-5.1V146.5z"/><path class="st1" d="M357.8 146.5h5.2l5.5 14.5 5.7-14.5h3.5l5.9 14.5 5.2-14.5h4.5l-8.3 21.6h-3.4l-6-15 -6 15h-3.5L357.8 146.5z"/><path class="st1" d="M396.2 149.1c0.2-0.7 0.5-1.2 0.9-1.6 0.4-0.4 1-0.6 1.7-0.8s1.5-0.2 2.5-0.2h16c1 0 1.9 0.1 2.5 0.2 0.7 0.2 1.2 0.4 1.7 0.8 0.4 0.4 0.7 0.9 0.9 1.6 0.2 0.7 0.3 1.5 0.3 2.5V163c0 1-0.1 1.8-0.3 2.5 -0.2 0.7-0.5 1.2-0.9 1.6 -0.4 0.4-1 0.6-1.7 0.8s-1.5 0.2-2.5 0.2h-16c-1 0-1.9-0.1-2.5-0.2 -0.7-0.2-1.2-0.4-1.7-0.8 -0.4-0.4-0.7-0.9-0.9-1.6 -0.2-0.7-0.3-1.5-0.3-2.5v-11.4C395.9 150.6 396 149.8 396.2 149.1zM417.6 164v-13.7H401V164H417.6z"/><path class="st1" d="M429 146.5h3.4l15.2 12.8c0.4 0.4 0.9 0.7 1.3 1.1 0.4 0.4 0.8 0.8 1.2 1.2 -0.1-0.9-0.1-1.7-0.2-2.3 0-0.6-0.1-1.1-0.1-1.4v-11.4h4.5v21.6h-3.4L435 154.7c-0.3-0.3-0.6-0.6-0.9-0.8 -0.3-0.3-0.6-0.6-0.9-0.9 0.1 0.8 0.1 1.5 0.2 2.1 0 0.6 0 1 0 1.3v11.7h-4.5L429 146.5 429 146.5z"/><path class="st1" d="M461.3 146.5h13.9c4.1 0 7.2 0.9 9.2 2.8 2.1 1.9 3.1 4.5 3.1 7.9 0 2-0.4 3.9-1.3 5.5 -0.8 1.6-2 2.9-3.5 3.8 -1.1 0.6-2.3 1.1-3.8 1.3s-3.2 0.4-5.1 0.4h-12.5V146.5zM472.8 164c1.6 0 3-0.1 4.2-0.3s2.2-0.6 3-1.1 1.4-1.2 1.8-2.1c0.4-0.9 0.6-2 0.6-3.4 0-2.2-0.6-3.9-1.8-5 -1.2-1.1-3-1.7-5.4-1.7h-8.9V164H472.8z"/><path class="st1" d="M492.4 149.1c0.2-0.7 0.5-1.2 0.9-1.6 0.4-0.4 1-0.6 1.7-0.8s1.5-0.2 2.5-0.2h16c1 0 1.9 0.1 2.5 0.2 0.7 0.2 1.2 0.4 1.7 0.8 0.4 0.4 0.7 0.9 0.9 1.6 0.2 0.7 0.3 1.5 0.3 2.5V163c0 1-0.1 1.8-0.3 2.5 -0.2 0.7-0.5 1.2-0.9 1.6 -0.4 0.4-1 0.6-1.7 0.8s-1.5 0.2-2.5 0.2h-16c-1 0-1.9-0.1-2.5-0.2 -0.7-0.2-1.2-0.4-1.7-0.8 -0.4-0.4-0.7-0.9-0.9-1.6 -0.2-0.7-0.3-1.5-0.3-2.5v-11.4C492.1 150.6 492.2 149.8 492.4 149.1zM513.8 164v-13.7h-16.6V164H513.8z"/></svg>
